<?xml version="1.0" encoding="UTF-8"?>
<!DOCTYPE svg PUBLIC "-//W3C//DTD SVG 1.1//EN" "http://www.w3.org/Graphics/SVG/1.1/DTD/svg11.dtd">
<!-- Creator: CorelDRAW -->
<svg xmlns="http://www.w3.org/2000/svg" xml:space="preserve" width="153.905mm" height="42.2304mm" style="shape-rendering:geometricPrecision; text-rendering:geometricPrecision; image-rendering:optimizeQuality; fill-rule:evenodd; clip-rule:evenodd" viewBox="0 0 154.157 42.2997" xmlns:xlink="http://www.w3.org/1999/xlink">
 <defs>
  <style type="text/css">
   <![CDATA[
    .fil3 {fill:#75C5F0}
    .fil0 {fill:#00458E}
    .fil5 {fill:#0069AD;fill-rule:nonzero}
    .fil1 {fill:url(#id0)}
    .fil4 {fill:url(#id1)}
    .fil2 {fill:url(#id2)}
   ]]>
  </style>
  <linearGradient id="id0" gradientUnits="userSpaceOnUse" x1="17.6101" y1="8.15727" x2="22.9744" y2="36.2274">
   <stop offset="0" style="stop-color:#AACFD4"/>
   <stop offset="1" style="stop-color:#007CC3"/>
  </linearGradient>
  <radialGradient id="id1" gradientUnits="userSpaceOnUse" cx="6.54253" cy="22.9721" r="42.1697" fx="6.54253" fy="22.9721">
   <stop offset="0" style="stop-color:#93D0F4"/>
   <stop offset="0.380392" style="stop-color:#0093DD"/>
   <stop offset="1" style="stop-color:#28166F"/>
  </radialGradient>
  <radialGradient id="id2" gradientUnits="userSpaceOnUse" xlink:href="#id1" cx="15.1736" cy="22.9834" r="7.74009" fx="15.1736" fy="22.9834">
  </radialGradient>
 </defs>
 <g id="Capa_x0020_1">
  <metadata id="CorelCorpID_0Corel-Layer"/>
  <g id="_97766808">
   <path id="_97766640" class="fil0" d="M20.4409 11.8378c0.0257422,0 0.0512841,0.000701149 0.0770263,0.000901478l-0.00100164 -0.000400657 -0.192616 -0.139028 -1.48774 -1.43225 1.71992 -1.6455c-0.0385632,-0.000400657 -0.0769261,-0.00150246 -0.115589,-0.00150246 -7.46564,0 -13.5441,5.8567 -13.7538,13.1568l1.60363 1.44116 1.61184 -1.66643c0.00711166,0.312913 0.0247406,0.620317 0.0517849,0.922412 -0.00300493,-0.102067 -0.00500821,-0.204335 -0.00500821,-0.307103 0,-5.70365 4.6982,-10.329 10.4916,-10.329zm10.4888 10.1041c0.00170279,0.0747225 0.00290476,0.149745 0.00290476,0.224969 0,5.70355 -4.70251,10.1113 -10.4917,10.329l-0.362695 0.0136223c0.000300493,0.000100164 -0.151448,0.000300493 -0.151148,0.000400657l2.22214 1.76299 -2.04205 1.43645c0.110982,0.00260427 0.222164,0.0042069 0.333747,0.0042069 7.59826,0 13.7601,-6.06634 13.7601,-13.5467 0,-0.0751232 -0.00160263,-0.149745 -0.00290476,-0.224568l-1.74556 -1.6466 -1.5228 1.6466m3.26836 -0.000500821c-0.0265435,-1.56497 -0.0259425,-1.56456 0,0zm-13.6406 -13.3202l0 0z"/>
   <path id="_97766256" class="fil1" d="M19.9262 32.5095c-5.40246,-0.297688 -9.87689,-4.50218 -10.0236,-10.958l-1.61184 1.66643 -1.68276 -1.51228c-0.221563,7.4416 5.66318,13.7114 13.2455,14.0518 0.059197,0.00260427 0.118094,0.00380624 0.17719,0.00570936l2.11857 -1.49034 -2.22214 -1.76299 -0.000901478 -0.000400657zm0.59177 -20.6708c5.68181,0.040266 10.2909,4.52882 10.4118,10.1036l1.5228 -1.6466 1.74556 1.6466c-0.121299,-7.33893 -6.17282,-13.2601 -13.6416,-13.3207l-1.71992 1.6455 1.48774 1.43225 0.192616 0.139028 0.00100164 0.000400657z"/>
   <path id="_97766232" class="fil2" d="M14.3803 22.0709c0,-0.0142233 0.000500821,-0.0283465 0.000600985,-0.0425698l-0.000100164 0.000500821 -0.0797307 0.106675 -0.818241 0.823851 -0.940141 -0.952461c-0.000200328,0.0214351 -0.000901478,0.0425698 -0.000901478,0.0640049 0,4.13438 3.34639,7.5006 7.51742,7.61679l0.82335 -0.888056 -0.952261 -0.892563c0.178693,-0.00410673 0.354481,-0.0138227 0.527164,-0.0287471 -0.0582956,0.00170279 -0.116791,0.0028046 -0.175588,0.0028046 -3.25874,0 -5.90157,-2.60197 -5.90157,-5.81022zm5.77316 -5.80852c0.0425698,-0.00110181 0.0854401,-0.00150246 0.128411,-0.00150246 3.25894,0 5.77737,2.60397 5.90177,5.81002l0.00761248 0.200929c0.000100164,-0.000200328 0.000300493,0.0837373 0.000300493,0.0836371l1.00735 -1.23052 0.820745 1.13075c0.00150246,-0.0613005 0.00240394,-0.122901 0.00240394,-0.184803 0,-4.2076 -3.46618,-7.62009 -7.74019,-7.62009 -0.0428703,0 -0.0854401,0.000901478 -0.12821,0.00160263l-0.940842 0.966685 0.940842 0.843282m-0.000400657 -1.80997c-0.894066,0.0147241 -0.893865,0.0144236 0,0zm-7.61048 7.55398l0 0z"/>
   <path id="_97766496" class="fil3" d="M26.1913 22.3559c-0.170079,2.9918 -2.57232,5.46967 -6.26096,5.551l0.952161 0.892563 -0.864016 0.931928c4.25177,0.122701 7.83414,-3.13624 8.02856,-7.33522 0.00150246,-0.0327537 0.00220361,-0.0654072 0.00330542,-0.0980608l-0.851496 -1.17332 -1.00735 1.23062 -0.000200328 0.000500821zm-11.8105 -0.327737c0.0229376,-3.14646 2.58754,-5.69894 5.77276,-5.76585l-0.940842 -0.843282 0.940842 -0.966685c-4.19317,0.0672102 -7.57632,3.4184 -7.61098,7.55448l0.940241 0.952562 0.818241 -0.823951 0.0794302 -0.106675 0.000300493 -0.000600985z"/>
   <path id="_97766736" class="fil4" d="M20.4409 6.81587c0.0382627,0 0.076225,0.00120197 0.114388,0.00150246l-0.0014023 -0.000600985 -0.286269 -0.206739 -2.21112 -2.12849 2.55619 -2.44561c-0.0573941,-0.000500821 -0.114287,-0.00210345 -0.171782,-0.00210345 -11.0954,0 -20.1291,8.70417 -20.4409,19.5535l2.38331 2.14181 2.4999 -2.59666c0.540586,-7.99441 7.30077,-14.3166 15.5577,-14.3166zm15.5883 15.0166c0.00260427,0.111082 0.00440722,0.222565 0.00440722,0.334348 0,8.4766 -6.98886,15.0272 -15.5927,15.3509l-0.539084 0.0202332c0.000500821,0.000200328 -0.224969,0.000400657 -0.224568,0.000701149l3.30251 2.6201 -3.03488 2.1348c0.16497,0.0039064 0.330141,0.00621018 0.496013,0.00621018 11.2923,0 20.45,-9.01568 20.45,-20.1329 0,-0.111583 -0.00240394,-0.222565 -0.00430706,-0.333747l-2.59425 -2.44711 -2.26321 2.44711m4.85746 -0.000801314l0 0zm-20.2724 -19.7963l0 0z"/>
  </g>
  <path class="fil5" d="M43.0014 0.248207l0 1.99407 -1.38387 0 0 10.9133 1.38387 0 0 1.99747 -5.27945 0 0 -1.99747 1.38387 0 0 -10.9133 -1.38387 0 0 -1.99407 5.27945 0zm1.65401 14.3124l0 -2.54748c0.234384,0.209443 0.508133,0.397351 0.828959,0.560719 0.320826,0.166673 0.659581,0.308506 1.01987,0.421992 0.360391,0.113686 0.717176,0.202332 1.07767,0.266236 0.356585,0.0601987 0.688228,0.0921511 0.991025,0.0921511 1.05583,0 1.84132,-0.173785 2.36047,-0.517949 0.515345,-0.34777 0.77467,-0.851596 0.77467,-1.50787 0,-0.354782 -0.0864417,-0.659782 -0.259325,-0.918906 -0.169578,-0.262631 -0.410874,-0.50022 -0.720882,-0.713169 -0.310008,-0.216355 -0.673805,-0.421992 -1.09189,-0.617312 -0.421691,-0.198626 -0.868524,-0.404463 -1.34781,-0.620818 -0.515345,-0.269742 -0.991025,-0.54279 -1.43435,-0.819644 -0.443227,-0.276553 -0.828959,-0.58536 -1.1567,-0.918906 -0.328038,-0.337053 -0.583957,-0.716575 -0.771264,-1.13877 -0.187307,-0.422192 -0.281261,-0.918906 -0.281261,-1.48654 0,-0.699046 0.162366,-1.30925 0.482892,-1.82369 0.31722,-0.517949 0.742517,-0.943747 1.26507,-1.2808 0.526062,-0.333547 1.12064,-0.58536 1.79114,-0.748727 0.666593,-0.163067 1.35142,-0.241095 2.04686,-0.241095 1.5856,0 2.73889,0.173685 3.46318,0.528566l0 2.4409c-0.857806,-0.606594 -1.96402,-0.911795 -3.31554,-0.911795 -0.371008,0 -0.742217,0.0319524 -1.11343,0.103069 -0.371309,0.0674105 -0.699046,0.184402 -0.991025,0.343964 -0.291979,0.156256 -0.529768,0.361993 -0.71367,0.610401 -0.183701,0.251813 -0.273749,0.553407 -0.273749,0.904483 0,0.333647 0.0684121,0.621118 0.208943,0.862213 0.140631,0.244901 0.345967,0.464762 0.619916,0.667094 0.270243,0.202131 0.601787,0.397452 0.991025,0.58536 0.389238,0.191514 0.843182,0.397452 1.35873,0.620818 0.526062,0.269742 1.02338,0.553507 1.49195,0.851596 0.468468,0.298089 0.879041,0.627829 1.23593,0.986217 0.353179,0.361993 0.638046,0.762951 0.843282,1.20287 0.208943,0.439921 0.313614,0.940241 0.313614,1.50076 0,0.755539 -0.155054,1.39429 -0.464862,1.91223 -0.310008,0.521555 -0.728094,0.943747 -1.25055,1.27028 -0.526163,0.322729 -1.12795,0.560519 -1.81277,0.705857 -0.681016,0.145438 -1.4055,0.216555 -2.16214,0.216555 -0.25602,0 -0.565727,-0.0179294 -0.937036,-0.0568933 -0.367603,-0.039064 -0.746023,-0.0922512 -1.13526,-0.166673 -0.385432,-0.0709163 -0.753135,-0.159662 -1.0955,-0.262631 -0.346067,-0.106475 -0.623422,-0.223466 -0.836171,-0.354681zm23.0283 -0.0319524c-1.13887,0.581854 -2.55859,0.872831 -4.25247,0.872831 -2.1984,0 -3.95689,-0.681317 -5.27945,-2.04726 -1.32267,-1.36594 -1.98566,-3.15397 -1.98566,-5.37141 0,-2.38421 0.742217,-4.31067 2.23436,-5.77947 1.48834,-1.46881 3.36952,-2.20331 5.64335,-2.20331 1.4631,0 2.67769,0.202131 3.63987,0.6101l0 2.45512c-1.01977,-0.595977 -2.14432,-0.893865 -3.37674,-0.893865 -1.63979,0 -2.96937,0.514443 -3.98563,1.54684 -1.01647,1.03239 -1.52821,2.41255 -1.52821,4.13688 0,1.64259 0.47568,2.95184 1.42714,3.92393 0.95136,0.975699 2.1984,1.4617 3.74794,1.4617 1.42704,0 2.66687,-0.333547 3.71549,-0.996934l0 2.28485zm14.0763 -0.393846c-1.57839,0.844484 -3.33326,1.26668 -5.26854,1.26668 -2.23797,0 -4.05074,-0.684823 -5.43822,-2.05787 -1.38747,-1.36955 -2.07931,-3.18612 -2.07931,-5.44593 0,-2.30618 0.75664,-4.20069 2.27403,-5.68021 1.51719,-1.47943 3.44515,-2.21744 5.78048,-2.21744 1.68286,0 3.09908,0.241095 4.24506,0.727392l0 2.54377c-1.1604,-0.759345 -2.54427,-1.14257 -4.1478,-1.14257 -1.61465,0 -2.93351,0.525261 -3.9641,1.56837 -1.03089,1.04652 -1.54984,2.40184 -1.54984,4.06566 0,1.7102 0.446933,3.05841 1.33349,4.03762 0.886553,0.982811 2.09013,1.47241 3.61112,1.47241 1.04141,0 1.94238,-0.198626 2.70263,-0.592471l0 -3.54441 -3.18923 0 0 -2.07901 5.69023 0 0 7.078zm5.76595 -4.38509l0 5.40336 -2.5009 0 0 -14.9048 4.59103 0c1.73705,0 3.08496,0.397351 4.04353,1.19576 0.958571,0.794803 1.43435,1.91935 1.43435,3.36692 0,1.44747 -0.497315,2.63262 -1.49916,3.55513 -0.998236,0.922412 -2.34965,1.38367 -4.05435,1.38367l-2.0145 0zm0 -7.46484l0 5.44593 1.62526 0c1.07767,0 1.89561,-0.244701 2.46154,-0.73781 0.562122,-0.489603 0.843082,-1.18514 0.843082,-2.07921 0,-1.75257 -1.0342,-2.62891 -3.10269,-2.62891l-1.8272 0z"/>
  <path class="fil5" d="M46.6735 19.371l0 0.781281 -0.542289 0 0 4.27681 0.542289 0 0 0.782683 -2.06899 0 0 -0.782683 0.542289 0 0 -4.27681 -0.542289 0 0 -0.781281 2.06899 0zm4.58682 5.84077l-0.959072 0 0 -2.34955c0,-0.780179 -0.28076,-1.16932 -0.840077,-1.16932 -0.292479,0 -0.533975,0.106975 -0.724488,0.323831 -0.190813,0.215553 -0.285268,0.4882 -0.285268,0.816138l0 2.3789 -0.964581 0 0 -4.17094 0.964581 0 0 0.692335 0.0170279 0c0.316118,-0.527064 0.775171,-0.789695 1.37265,-0.789695 0.461857,0 0.813333,0.147542 1.05483,0.442025 0.242898,0.293381 0.364397,0.720381 0.364397,1.27649l0 2.54978zm0.906686 -0.130814l0 -0.875836c0.358688,0.269842 0.753936,0.403361 1.18765,0.403361 0.578849,0 0.868524,-0.168376 0.868524,-0.504828 0,-0.0946552 -0.0253415,-0.175287 -0.0749228,-0.241897 -0.0492808,-0.0666092 -0.11589,-0.126407 -0.200529,-0.177992 -0.0833366,-0.0514844 -0.183601,-0.0973596 -0.298089,-0.137626 -0.114187,-0.0416683 -0.241496,-0.0874433 -0.382727,-0.139028 -0.173484,-0.0680115 -0.330342,-0.139028 -0.468768,-0.215553 -0.139829,-0.0765255 -0.255719,-0.162667 -0.347369,-0.258624 -0.0932529,-0.0973596 -0.162366,-0.205637 -0.208842,-0.327938 -0.0482791,-0.1223 -0.0708161,-0.264333 -0.0708161,-0.428402 0,-0.200128 0.0479787,-0.37812 0.144036,-0.531171 0.0974598,-0.15275 0.227273,-0.282163 0.389939,-0.386333 0.162366,-0.104171 0.347369,-0.183501 0.553507,-0.236388 0.20754,-0.0528867 0.42089,-0.0792299 0.641151,-0.0792299 0.392544,0 0.742918,0.0583957 1.05212,0.175187l0 0.825754c-0.298089,-0.200228 -0.641251,-0.300292 -1.02678,-0.300292 -0.121399,0 -0.231479,0.0112184 -0.328939,0.0361593 -0.0974598,0.0249409 -0.180796,0.0583957 -0.25011,0.101466 -0.0691133,0.0430706 -0.122801,0.0959573 -0.160964,0.157158 -0.0395649,0.0611002 -0.0579951,0.12801 -0.0579951,0.20153 0,0.0891461 0.0184302,0.165672 0.0579951,0.228174 0.0381626,0.0625025 0.0946552,0.118194 0.17098,0.165371 0.0763251,0.0473777 0.166573,0.0904483 0.273849,0.129412 0.106074,0.040266 0.227573,0.0833366 0.366,0.129112 0.182099,0.0724187 0.344565,0.147542 0.489903,0.223767 0.145438,0.0765255 0.26824,0.162967 0.369906,0.258624 0.101667,0.0959573 0.180796,0.20734 0.235987,0.333747 0.0550903,0.126708 0.0832365,0.276654 0.0832365,0.450539 0,0.211447 -0.0492808,0.39625 -0.149545,0.553407 -0.0988621,0.15846 -0.23178,0.287672 -0.396951,0.392143 -0.165171,0.102869 -0.355984,0.179394 -0.57354,0.229276 -0.215854,0.0501823 -0.444829,0.0751232 -0.684923,0.0751232 -0.462959,0 -0.864016,-0.0751232 -1.20297,-0.228174zm6.15158 0.0864417c-0.186606,0.0915501 -0.433711,0.137626 -0.740113,0.137626 -0.821947,0 -1.23282,-0.388036 -1.23282,-1.16521l0 -2.35807 -0.70746 0 0 -0.740915 0.70746 0 0 -0.965082 0.960174 -0.269542 0 1.23462 1.01276 0 0 0.740915 -1.01276 0 0 2.08552c0,0.247606 0.0453744,0.424195 0.135622,0.529768 0.0919507,0.105573 0.242898,0.15856 0.456248,0.15856 0.162366,0 0.302195,-0.0458752 0.42089,-0.137726l0 0.749529zm1.31195 -5.0025c-0.156857,0 -0.290777,-0.0501823 -0.40246,-0.150246 -0.113085,-0.101466 -0.167975,-0.227874 -0.167975,-0.383629 0,-0.154453 0.05489,-0.283565 0.167975,-0.386433 0.111683,-0.103069 0.245603,-0.154353 0.40246,-0.154353 0.162366,0 0.300793,0.0512841 0.413678,0.154353 0.113085,0.102869 0.169578,0.23198 0.169578,0.386433 0,0.147241 -0.0564926,0.272547 -0.169578,0.376718 -0.112885,0.105673 -0.251312,0.157158 -0.413678,0.157158zm0.47608 5.04687l-0.960475 0 0 -4.17094 0.960475 0 0 4.17094zm3.48672 -0.0443727c-0.186606,0.0915501 -0.433611,0.137626 -0.740013,0.137626 -0.822048,0 -1.23282,-0.388036 -1.23282,-1.16521l0 -2.35807 -0.70756 0 0 -0.740915 0.70756 0 0 -0.965082 0.960074 -0.269542 0 1.23462 1.01276 0 0 0.740915 -1.01276 0 0 2.08552c0,0.247606 0.0453744,0.424195 0.135622,0.529768 0.0919507,0.105573 0.242898,0.15856 0.456348,0.15856 0.162366,0 0.302195,-0.0458752 0.42079,-0.137726l0 0.749529zm4.52332 0.0443727l-0.960174 0 0 -0.660282 -0.0169278 0c-0.278256,0.505929 -0.711967,0.757642 -1.29943,0.757642 -1.00104,0 -1.50106,-0.590969 -1.50106,-1.77531l0 -2.49299 0.958772 0 0 2.39563c0,0.749128 0.293782,1.12324 0.882647,1.12324 0.283865,0 0.517048,-0.102869 0.700548,-0.308506 0.183601,-0.20734 0.275452,-0.476882 0.275452,-0.810629l0 -2.39973 0.960174 0 0 4.17094zm3.48261 -0.0443727c-0.186606,0.0915501 -0.433711,0.137626 -0.740013,0.137626 -0.822048,0 -1.23292,-0.388036 -1.23292,-1.16521l0 -2.35807 -0.70746 0 0 -0.740915 0.70746 0 0 -0.965082 0.960174 -0.269542 0 1.23462 1.01276 0 0 0.740915 -1.01276 0 0 2.08552c0,0.247606 0.0453744,0.424195 0.135622,0.529768 0.0919507,0.105573 0.242898,0.15856 0.456248,0.15856 0.162466,0 0.302296,-0.0458752 0.42089,-0.137726l0 0.749529zm2.65645 0.141732c-0.652269,0 -1.17483,-0.194719 -1.56477,-0.584057 -0.391141,-0.389138 -0.586061,-0.906386 -0.586061,-1.55024 0,-0.700649 0.203534,-1.24694 0.6102,-1.64179 0.406767,-0.393545 0.954665,-0.589566 1.6451,-0.589566 0.660984,0 1.17803,0.190512 1.54654,0.574241 0.369906,0.382227 0.55481,0.913397 0.55481,1.59181 0,0.666092 -0.198826,1.19836 -0.597179,1.59902 -0.399755,0.400356 -0.935033,0.600585 -1.60864,0.600585zm0.0465764 -3.61212c-0.375516,0 -0.672102,0.12781 -0.889658,0.386433 -0.217557,0.258824 -0.327637,0.613105 -0.327637,1.06775 0,0.436616 0.11008,0.781581 0.331744,1.03169 0.220361,0.251713 0.515645,0.376818 0.885552,0.376818 0.377118,0 0.667895,-0.123703 0.869926,-0.369706 0.203534,-0.247606 0.3052,-0.599483 0.3052,-1.05553 0,-0.458752 -0.101667,-0.813333 -0.3052,-1.06344 -0.202031,-0.248908 -0.492808,-0.374013 -0.869926,-0.374013zm5.29869 3.28248l0 -0.998136c0.0916502,0.0819343 0.199227,0.155755 0.324833,0.21966 0.125606,0.0652069 0.258524,0.120898 0.399655,0.165371 0.141232,0.0446732 0.281061,0.0792299 0.422292,0.104471 0.139829,0.0235386 0.269642,0.0361593 0.388337,0.0361593 0.413578,0 0.721683,-0.068312 0.925016,-0.203233 0.201931,-0.136223 0.303598,-0.333747 0.303598,-0.590668 0,-0.139028 -0.0339557,-0.258624 -0.101667,-0.360291 -0.066509,-0.102869 -0.160964,-0.195821 -0.282463,-0.279458 -0.121399,-0.0847389 -0.264033,-0.165371 -0.428102,-0.241897 -0.165171,-0.0778276 -0.340057,-0.15846 -0.528066,-0.243199 -0.201931,-0.105573 -0.388337,-0.212849 -0.562122,-0.321126 -0.173585,-0.108578 -0.324833,-0.229576 -0.453243,-0.36009 -0.128411,-0.132117 -0.228675,-0.281061 -0.302195,-0.446432 -0.0735205,-0.165371 -0.10998,-0.36009 -0.10998,-0.582455 0,-0.273949 0.0635041,-0.513041 0.18911,-0.714571 0.124204,-0.202933 0.290777,-0.370007 0.495512,-0.501923 0.206438,-0.130814 0.43932,-0.229476 0.701951,-0.293381 0.261228,-0.0639048 0.529768,-0.0946552 0.802215,-0.0946552 0.621419,0 1.07316,0.0680115 1.35702,0.207039l0 0.956869c-0.335951,-0.23779 -0.769562,-0.357386 -1.29913,-0.357386 -0.145338,0 -0.291077,0.0123202 -0.436415,0.0403662 -0.145438,0.0263432 -0.273849,0.0721182 -0.388337,0.134621 -0.114488,0.0614007 -0.20754,0.142033 -0.279658,0.239092 -0.0718177,0.0987619 -0.107276,0.216956 -0.107276,0.354581 0,0.130814 0.0267438,0.243499 0.0819343,0.337854 0.0551905,0.0959573 0.135622,0.182399 0.242898,0.261629 0.105874,0.0789294 0.235887,0.155455 0.388236,0.229276 0.15265,0.0751232 0.330642,0.155755 0.532573,0.243199 0.206138,0.105874 0.400857,0.216956 0.584759,0.333747 0.183501,0.116791 0.344465,0.246003 0.484294,0.386634 0.138227,0.141833 0.24991,0.29889 0.330442,0.471172 0.0818342,0.172483 0.122801,0.368504 0.122801,0.588164 0,0.296186 -0.0606995,0.546296 -0.182199,0.749529 -0.121399,0.204235 -0.285167,0.369606 -0.489903,0.497716 -0.206138,0.126407 -0.442125,0.21966 -0.710365,0.276654 -0.267038,0.0569934 -0.550903,0.0847389 -0.847289,0.0847389 -0.100264,0 -0.221764,-0.00681117 -0.367402,-0.0222365 -0.144036,-0.0153251 -0.292179,-0.0361593 -0.444829,-0.0655074 -0.150947,-0.0277455 -0.294984,-0.0625025 -0.429204,-0.102869 -0.135722,-0.0416683 -0.2443,-0.0874433 -0.327637,-0.139028zm8.47469 0.232281l-0.960074 0 0 -0.660282 -0.0170279 0c-0.278256,0.505929 -0.711967,0.757642 -1.29943,0.757642 -1.00104,0 -1.50106,-0.590969 -1.50106,-1.77531l0 -2.49299 0.958772 0 0 2.39563c0,0.749128 0.293882,1.12324 0.882747,1.12324 0.283765,0 0.516947,-0.102869 0.700448,-0.308506 0.183601,-0.20734 0.275552,-0.476882 0.275552,-0.810629l0 -2.39973 0.960074 0 0 4.17094zm2.22565 -0.614507l-0.0167274 0 0 2.53325 -0.960475 0 0 -6.08968 0.960475 0 0 0.732701 0.0167274 0c0.327837,-0.553407 0.807724,-0.830061 1.43916,-0.830061 0.537882,0 0.957369,0.184803 1.25826,0.557514 0.300793,0.372611 0.450338,0.871729 0.450338,1.49886 0,0.69514 -0.169378,1.25265 -0.508333,1.66974 -0.338956,0.418486 -0.802215,0.62833 -1.38968,0.62833 -0.540586,0 -0.957269,-0.233383 -1.24975,-0.700649zm-0.0253415 -1.6462l0 0.517148c0,0.3047 0.0988621,0.561621 0.296586,0.77447 0.196422,0.211447 0.447634,0.31702 0.749829,0.31702 0.355984,0 0.635342,-0.136323 0.838975,-0.40867 0.201931,-0.272547 0.303598,-0.653471 0.303598,-1.14297 0,-0.410172 -0.0946552,-0.731299 -0.283765,-0.963279 -0.188008,-0.232281 -0.444829,-0.34777 -0.766857,-0.34777 -0.34176,0 -0.617212,0.119596 -0.826154,0.357286 -0.207841,0.239192 -0.312212,0.538082 -0.312212,0.89677zm7.74039 0.432409l-2.88653 0c0.00971593,0.385031 0.131215,0.682619 0.361593,0.891261 0.230077,0.209744 0.546496,0.314315 0.948956,0.314315 0.453243,0 0.867121,-0.133619 1.24534,-0.399054l0 0.760447c-0.385432,0.239092 -0.89657,0.358688 -1.53081,0.358688 -0.622621,0 -1.11282,-0.18921 -1.46711,-0.56733 -0.353179,-0.379622 -0.531171,-0.912095 -0.531171,-1.59882 0,-0.649365 0.19492,-1.17753 0.586061,-1.5864 0.389939,-0.40887 0.874333,-0.613105 1.45338,-0.613105 0.580251,0 1.02789,0.183401 1.34571,0.5492 0.316419,0.367002 0.474578,0.875936 0.474578,1.528l0 0.362795zm-0.926419 -0.668796c-0.0028046,-0.339256 -0.0832365,-0.603289 -0.2443,-0.792499 -0.159562,-0.187608 -0.379923,-0.282163 -0.660984,-0.282163 -0.276854,0 -0.509736,0.0986617 -0.701951,0.297488 -0.191915,0.197424 -0.309107,0.45745 -0.352878,0.777174l1.96011 0zm4.30015 -0.774369c-0.11589,-0.0889458 -0.283865,-0.133319 -0.501322,-0.133319 -0.283865,0 -0.521154,0.126407 -0.711767,0.37812 -0.190713,0.252915 -0.285167,0.596478 -0.285167,1.02999l0 1.99667 -0.960475 0 0 -4.17094 0.960475 0 0 0.859108 0.0167274 0c0.0932529,-0.293381 0.237289,-0.521255 0.432309,-0.685323 0.194619,-0.165571 0.410773,-0.247606 0.650867,-0.247606 0.173885,0 0.306402,0.0266437 0.398353,0.0779277l0 0.895368zm1.16211 -1.77541c-0.156857,0 -0.290777,-0.0501823 -0.40246,-0.150246 -0.113085,-0.101466 -0.167975,-0.227874 -0.167975,-0.383629 0,-0.154453 0.05489,-0.283565 0.167975,-0.386433 0.111683,-0.103069 0.245603,-0.154353 0.40246,-0.154353 0.162366,0 0.300793,0.0512841 0.413678,0.154353 0.113085,0.102869 0.169578,0.23198 0.169578,0.386433 0,0.147241 -0.0564926,0.272547 -0.169578,0.376718 -0.112885,0.105673 -0.251312,0.157158 -0.413678,0.157158zm0.47598 5.04687l-0.960374 0 0 -4.17094 0.960374 0 0 4.17094zm3.13083 0.0973596c-0.652269,0 -1.17483,-0.194719 -1.56487,-0.584057 -0.391041,-0.389138 -0.585961,-0.906386 -0.585961,-1.55024 0,-0.700649 0.203534,-1.24694 0.6102,-1.64179 0.406767,-0.393545 0.954565,-0.589566 1.6451,-0.589566 0.660984,0 1.17803,0.190512 1.54654,0.574241 0.369906,0.382227 0.55481,0.913397 0.55481,1.59181 0,0.666092 -0.198826,1.19836 -0.597179,1.59902 -0.399755,0.400356 -0.935033,0.600585 -1.60864,0.600585zm0.0465764 -3.61212c-0.375516,0 -0.672102,0.12781 -0.889658,0.386433 -0.217557,0.258824 -0.327637,0.613105 -0.327637,1.06775 0,0.436616 0.11008,0.781581 0.331744,1.03169 0.220361,0.251713 0.515645,0.376818 0.885552,0.376818 0.377118,0 0.667895,-0.123703 0.869926,-0.369706 0.203534,-0.247606 0.3052,-0.599483 0.3052,-1.05553 0,-0.458752 -0.101667,-0.813333 -0.3052,-1.06344 -0.202031,-0.248908 -0.492808,-0.374013 -0.869926,-0.374013zm5.59397 0.243299c-0.11589,-0.0889458 -0.283865,-0.133319 -0.501322,-0.133319 -0.283865,0 -0.521154,0.126407 -0.711767,0.37812 -0.190713,0.252915 -0.285167,0.596478 -0.285167,1.02999l0 1.99667 -0.960475 0 0 -4.17094 0.960475 0 0 0.859108 0.0167274 0c0.0932529,-0.293381 0.237289,-0.521255 0.432309,-0.685323 0.194619,-0.165571 0.410773,-0.247606 0.650867,-0.247606 0.173885,0 0.306402,0.0266437 0.398353,0.0779277l0 0.895368zm6.85884 3.27146l-0.960374 0 0 -0.709163 -0.0153251 0c-0.309507,0.538082 -0.785187,0.806522 -1.42784,0.806522 -0.521154,0 -0.93924,-0.186205 -1.25125,-0.560218 -0.313614,-0.372711 -0.470371,-0.881645 -0.470371,-1.5253 0,-0.689631 0.173785,-1.24164 0.519752,-1.65742 0.345967,-0.415481 0.806322,-0.622721 1.38407,-0.622721 0.570435,0 0.985716,0.225069 1.24564,0.675708l0.0153251 0 0 -2.58183 0.960374 0 0 6.17442zm-0.947553 -1.90612l0 -0.546296c0,-0.296186 -0.0975599,-0.546496 -0.293882,-0.753535 -0.196122,-0.205938 -0.444829,-0.308806 -0.748427,-0.308806 -0.358788,0 -0.641251,0.130814 -0.845987,0.394847 -0.206138,0.262731 -0.309207,0.62853 -0.309207,1.0956 0,0.423895 0.0989622,0.757642 0.296686,1.00395 0.196122,0.246003 0.461857,0.368304 0.796406,0.368304 0.327537,0 0.594675,-0.118194 0.798008,-0.355984 0.204736,-0.23779 0.306402,-0.53668 0.306402,-0.898072zm5.78729 0.0778276l-2.88653 0c0.00971593,0.385031 0.131215,0.682619 0.361493,0.891261 0.230077,0.209744 0.546496,0.314315 0.949056,0.314315 0.453143,0 0.867121,-0.133619 1.24534,-0.399054l0 0.760447c-0.385532,0.239092 -0.89667,0.358688 -1.53091,0.358688 -0.622521,0 -1.11272,-0.18921 -1.467,-0.56733 -0.353279,-0.379622 -0.531271,-0.912095 -0.531271,-1.59882 0,-0.649365 0.19502,-1.17753 0.586061,-1.5864 0.390039,-0.40887 0.874433,-0.613105 1.45348,-0.613105 0.580251,0 1.02778,0.183401 1.34561,0.5492 0.316419,0.367002 0.474678,0.875936 0.474678,1.528l0 0.362795zm-0.926419 -0.668796c-0.0028046,-0.339256 -0.0833366,-0.603289 -0.2443,-0.792499 -0.159562,-0.187608 -0.379923,-0.282163 -0.660984,-0.282163 -0.276854,0 -0.509736,0.0986617 -0.701951,0.297488 -0.191915,0.197424 -0.309207,0.45745 -0.352878,0.777174l1.96011 0zm8.4151 2.25249c-0.446232,0.227874 -1.00254,0.341961 -1.66623,0.341961 -0.861612,0 -1.55074,-0.267138 -2.06909,-0.802115 -0.518049,-0.535277 -0.777975,-1.23623 -0.777975,-2.10495 0,-0.934532 0.290777,-1.68947 0.875535,-2.26511 0.583256,-0.575343 1.32026,-0.863315 2.21163,-0.863315 0.57324,0 1.04922,0.07933 1.42614,0.239192l0 0.962277c-0.399455,-0.233683 -0.840077,-0.350475 -1.32307,-0.350475 -0.642654,0 -1.16381,0.20153 -1.56216,0.605993 -0.397952,0.404764 -0.598581,0.94555 -0.598581,1.62126 0,0.643555 0.186406,1.1567 0.559117,1.53762 0.372911,0.382527 0.861512,0.572839 1.46871,0.572839 0.559317,0 1.04511,-0.130514 1.45599,-0.39054l0 0.895368zm2.89655 0.341961c-0.652369,0 -1.17493,-0.194719 -1.56487,-0.584057 -0.391041,-0.389138 -0.586061,-0.906386 -0.586061,-1.55024 0,-0.700649 0.203634,-1.24694 0.6103,-1.64179 0.406667,-0.393545 0.954565,-0.589566 1.6451,-0.589566 0.660984,0 1.17793,0.190512 1.54644,0.574241 0.369906,0.382227 0.55491,0.913397 0.55491,1.59181 0,0.666092 -0.198926,1.19836 -0.597179,1.59902 -0.399755,0.400356 -0.935133,0.600585 -1.60864,0.600585zm0.0464762 -3.61212c-0.375415,0 -0.672102,0.12781 -0.889658,0.386433 -0.217557,0.258824 -0.327537,0.613105 -0.327537,1.06775 0,0.436616 0.10998,0.781581 0.331744,1.03169 0.220361,0.251713 0.515545,0.376818 0.885452,0.376818 0.377218,0 0.667995,-0.123703 0.869926,-0.369706 0.203634,-0.247606 0.3053,-0.599483 0.3053,-1.05553 0,-0.458752 -0.101667,-0.813333 -0.3053,-1.06344 -0.201931,-0.248908 -0.492708,-0.374013 -0.869926,-0.374013zm6.90873 3.51476l-0.958972 0 0 -2.34955c0,-0.780179 -0.28076,-1.16932 -0.840077,-1.16932 -0.292479,0 -0.533975,0.106975 -0.724488,0.323831 -0.190813,0.215553 -0.285268,0.4882 -0.285268,0.816138l0 2.3789 -0.964581 0 0 -4.17094 0.964581 0 0 0.692335 0.0170279 0c0.316118,-0.527064 0.775171,-0.789695 1.37265,-0.789695 0.461857,0 0.813333,0.147542 1.05483,0.442025 0.242898,0.293381 0.364297,0.720381 0.364297,1.27649l0 2.54978zm3.40498 -0.0443727c-0.186606,0.0915501 -0.433711,0.137626 -0.740113,0.137626 -0.821947,0 -1.23282,-0.388036 -1.23282,-1.16521l0 -2.35807 -0.70756 0 0 -0.740915 0.70756 0 0 -0.965082 0.960074 -0.269542 0 1.23462 1.01286 0 0 0.740915 -1.01286 0 0 2.08552c0,0.247606 0.0454745,0.424195 0.135722,0.529768 0.0918506,0.105573 0.242898,0.15856 0.456248,0.15856 0.162366,0 0.302195,-0.0458752 0.42089,-0.137726l0 0.749529zm3.28619 -3.22709c-0.11579,-0.0889458 -0.283765,-0.133319 -0.501322,-0.133319 -0.283865,0 -0.521154,0.126407 -0.711667,0.37812 -0.190813,0.252915 -0.285268,0.596478 -0.285268,1.02999l0 1.99667 -0.960374 0 0 -4.17094 0.960374 0 0 0.859108 0.0167274 0c0.093353,-0.293381 0.237289,-0.521255 0.432309,-0.685323 0.194719,-0.165571 0.410874,-0.247606 0.650967,-0.247606 0.173785,0 0.306402,0.0266437 0.398253,0.0779277l0 0.895368zm2.48107 3.36882c-0.652369,0 -1.17493,-0.194719 -1.56487,-0.584057 -0.391141,-0.389138 -0.586061,-0.906386 -0.586061,-1.55024 0,-0.700649 0.203634,-1.24694 0.6103,-1.64179 0.406667,-0.393545 0.954565,-0.589566 1.6451,-0.589566 0.660984,0 1.17793,0.190512 1.54644,0.574241 0.369906,0.382227 0.55481,0.913397 0.55481,1.59181 0,0.666092 -0.198826,1.19836 -0.597179,1.59902 -0.399655,0.400356 -0.935033,0.600585 -1.60854,0.600585zm0.0464762 -3.61212c-0.375516,0 -0.672102,0.12781 -0.889658,0.386433 -0.217557,0.258824 -0.327537,0.613105 -0.327537,1.06775 0,0.436616 0.10998,0.781581 0.331744,1.03169 0.220261,0.251713 0.515545,0.376818 0.885452,0.376818 0.377118,0 0.667995,-0.123703 0.869926,-0.369706 0.203634,-0.247606 0.3053,-0.599483 0.3053,-1.05553 0,-0.458752 -0.101667,-0.813333 -0.3053,-1.06344 -0.201931,-0.248908 -0.492808,-0.374013 -0.869926,-0.374013zm4.09992 3.51476l-0.964581 0 0 -6.17442 0.964581 0 0 6.17442zm-105.266 8.93815l-0.960475 0 0 -0.709163 -0.015225 0c-0.309507,0.537982 -0.785287,0.806522 -1.42784,0.806522 -0.521154,0 -0.93924,-0.186205 -1.25125,-0.560319 -0.313614,-0.372611 -0.470471,-0.881545 -0.470471,-1.5252 0,-0.689631 0.173785,-1.24174 0.519752,-1.65742 0.345967,-0.415481 0.806422,-0.622821 1.38407,-0.622821 0.570535,0 0.985816,0.225169 1.24574,0.675708l0.015225 0 0 -2.58183 0.960475 0 0 6.17452zm-0.947654 -1.90612l0 -0.546296c0,-0.296186 -0.0974598,-0.546496 -0.293782,-0.753535 -0.196122,-0.205938 -0.444829,-0.308806 -0.748527,-0.308806 -0.358688,0 -0.641151,0.130814 -0.845887,0.394847 -0.206138,0.262731 -0.309207,0.62853 -0.309207,1.0956 0,0.423895 0.0988621,0.757642 0.296686,1.00395 0.196021,0.245903 0.461757,0.368204 0.796305,0.368204 0.327637,0 0.594675,-0.118194 0.798008,-0.355883 0.204736,-0.23779 0.306402,-0.53668 0.306402,-0.898072zm5.78739 0.0778276l-2.88663 0c0.00981609,0.385031 0.131215,0.682519 0.361593,0.891261 0.230077,0.209744 0.546496,0.314215 0.948956,0.314215 0.453243,0 0.867121,-0.133519 1.24544,-0.398954l0 0.760447c-0.385532,0.239092 -0.89667,0.358688 -1.53091,0.358688 -0.622521,0 -1.11282,-0.18921 -1.46711,-0.56743 -0.353179,-0.379522 -0.531171,-0.912095 -0.531171,-1.59872 0,-0.649365 0.19502,-1.17753 0.586061,-1.5864 0.389939,-0.40887 0.874333,-0.613205 1.45348,-0.613205 0.580151,0 1.02778,0.183501 1.34561,0.5493 0.316419,0.366901 0.474678,0.875936 0.474678,1.528l0 0.362795zm-0.926519 -0.668796c-0.00270443,-0.339256 -0.0832365,-0.603289 -0.2442,-0.792499 -0.159662,-0.187608 -0.380023,-0.282263 -0.660984,-0.282263 -0.276954,0 -0.509736,0.0987619 -0.701951,0.297588 -0.191915,0.197424 -0.309207,0.45735 -0.352979,0.777174l1.96011 0zm5.13472 2.49709l-0.964581 0 0 -6.17452 0.964581 0 0 6.17452zm4.50068 0l-0.930626 0 0 -0.652169 -0.0169278 0c-0.292179,0.500521 -0.721683,0.749529 -1.28661,0.749529 -0.416383,0 -0.742617,-0.111383 -0.978504,-0.333747 -0.235987,-0.222365 -0.353179,-0.517248 -0.353179,-0.884149 0,-0.78699 0.460355,-1.24574 1.38126,-1.37656l1.25816 -0.175287c0,-0.595076 -0.28657,-0.890961 -0.85981,-0.890961 -0.505629,0 -0.960475,0.17088 -1.36574,0.512841l0 -0.827056c0.446232,-0.261328 0.961777,-0.390841 1.54644,-0.390841 1.07045,0 1.60553,0.51865 1.60553,1.55575l0 2.71265zm-0.926419 -2.04936l-0.889658 0.122401c-0.275452,0.0361593 -0.482992,0.101366 -0.622821,0.197424 -0.139829,0.0973596 -0.208943,0.265435 -0.208943,0.507332 0,0.176589 0.0649064,0.321327 0.191915,0.433811 0.128711,0.112685 0.300893,0.169678 0.515645,0.169678 0.292179,0 0.535378,-0.101466 0.72589,-0.304399 0.191915,-0.201831 0.287972,-0.455947 0.287972,-0.763351l0 -0.362895zm9.16382 1.65031c-0.618614,0.331043 -1.30634,0.496414 -2.06489,0.496414 -0.876837,0 -1.5871,-0.26854 -2.13079,-0.806522 -0.543691,-0.53668 -0.815036,-1.24855 -0.815036,-2.134 0,-0.903882 0.296686,-1.6462 0.891361,-2.22595 0.594374,-0.57965 1.35011,-0.869025 2.26511,-0.869025 0.659581,0 1.21439,0.0946552 1.66343,0.284967l0 0.997034c-0.454545,-0.297488 -0.996934,-0.447834 -1.62526,-0.447834 -0.632837,0 -1.14958,0.205737 -1.55345,0.614608 -0.403862,0.410273 -0.607195,0.941143 -0.607195,1.59321 0,0.670199 0.174887,1.19867 0.522456,1.58229 0.347369,0.385031 0.818943,0.576946 1.41502,0.576946 0.408069,0 0.761048,-0.0778276 1.05904,-0.232181l0 -1.38898 -1.24985 0 0 -0.814736 2.23006 0 0 2.77375zm4.7578 -1.42924l-2.88653 0c0.00971593,0.385031 0.131215,0.682519 0.361593,0.891261 0.230077,0.209744 0.546496,0.314215 0.948956,0.314215 0.453143,0 0.867121,-0.133519 1.24534,-0.398954l0 0.760447c-0.385532,0.239092 -0.89657,0.358688 -1.53081,0.358688 -0.622621,0 -1.11282,-0.18921 -1.46711,-0.56743 -0.353179,-0.379522 -0.531171,-0.912095 -0.531171,-1.59872 0,-0.649365 0.19492,-1.17753 0.586061,-1.5864 0.389939,-0.40887 0.874333,-0.613205 1.45338,-0.613205 0.580251,0 1.02789,0.183501 1.34571,0.5493 0.316419,0.366901 0.474578,0.875936 0.474578,1.528l0 0.362795zm-0.926419 -0.668796c-0.0028046,-0.339256 -0.0833366,-0.603289 -0.2443,-0.792499 -0.159562,-0.187608 -0.379923,-0.282263 -0.660984,-0.282263 -0.276854,0 -0.509736,0.0987619 -0.701951,0.297588 -0.191915,0.197424 -0.309107,0.45735 -0.352878,0.777174l1.96011 0zm1.57739 2.36628l0 -0.875936c0.358788,0.269842 0.754036,0.403461 1.18775,0.403461 0.578749,0 0.868424,-0.168376 0.868424,-0.504928 0,-0.094555 -0.0253415,-0.175187 -0.0749228,-0.241796 -0.0492808,-0.0666092 -0.11579,-0.126407 -0.200529,-0.177992 -0.0832365,-0.0515846 -0.183501,-0.0973596 -0.297989,-0.137626 -0.114287,-0.0417685 -0.241496,-0.0875435 -0.382727,-0.139028 -0.173585,-0.0680115 -0.330342,-0.139028 -0.468869,-0.215553 -0.139829,-0.0765255 -0.255619,-0.162667 -0.347269,-0.258624 -0.093353,-0.0973596 -0.162466,-0.205637 -0.208943,-0.327938 -0.048179,-0.1223 -0.0707159,-0.264433 -0.0707159,-0.428402 0,-0.200128 0.0478785,-0.37812 0.143936,-0.531171 0.0975599,-0.15275 0.227373,-0.282163 0.390039,-0.386333 0.162366,-0.104271 0.347269,-0.183501 0.553407,-0.236388 0.20754,-0.0529869 0.42089,-0.07933 0.641251,-0.07933 0.392443,0 0.742818,0.0584959 1.05202,0.175287l0 0.825654c-0.297989,-0.200128 -0.641151,-0.300292 -1.02668,-0.300292 -0.121499,0 -0.231479,0.0113186 -0.328939,0.0362594 -0.0975599,0.0249409 -0.180796,0.0583957 -0.25021,0.101466 -0.0690131,0.0430706 -0.122801,0.0959573 -0.160964,0.157158 -0.0395649,0.0611002 -0.0578949,0.12801 -0.0578949,0.20153 0,0.0891461 0.01833,0.165571 0.0578949,0.228174 0.0381626,0.0625025 0.0947553,0.118194 0.17108,0.165371 0.0763251,0.0473777 0.166573,0.0904483 0.273749,0.129412 0.106174,0.040266 0.227573,0.0833366 0.366,0.129112 0.182199,0.0724187 0.344565,0.147542 0.490003,0.223767 0.145338,0.0765255 0.26824,0.162867 0.369906,0.258624 0.101667,0.0959573 0.180796,0.20734 0.235887,0.333747 0.0551905,0.126708 0.0833366,0.276654 0.0833366,0.450539 0,0.211447 -0.049381,0.39625 -0.149645,0.553407 -0.0988621,0.15846 -0.23168,0.287672 -0.396851,0.392143 -0.165171,0.102768 -0.355984,0.179294 -0.57354,0.229276 -0.215854,0.0501823 -0.444829,0.0751232 -0.684923,0.0751232 -0.462959,0 -0.864117,-0.0751232 -1.20307,-0.228174zm6.15168 0.0863415c-0.186706,0.0916502 -0.433711,0.137726 -0.740113,0.137726 -0.822048,0 -1.23282,-0.388036 -1.23282,-1.16521l0 -2.35807 -0.70756 0 0 -0.741015 0.70756 0 0 -0.964982 0.960074 -0.269542 0 1.23452 1.01286 0 0 0.741015 -1.01286 0 0 2.08552c0,0.247606 0.0454745,0.424195 0.135722,0.529768 0.0918506,0.105573 0.242898,0.15846 0.456248,0.15846 0.162366,0 0.302195,-0.045775 0.42089,-0.137626l0 0.749429zm1.31185 -5.0024c-0.156757,0 -0.290777,-0.0501823 -0.40246,-0.150246 -0.113085,-0.101466 -0.167975,-0.227874 -0.167975,-0.383629 0,-0.154453 0.05489,-0.283565 0.167975,-0.386433 0.111683,-0.103069 0.245703,-0.154353 0.40246,-0.154353 0.162466,0 0.300893,0.0512841 0.413678,0.154353 0.113085,0.102869 0.169678,0.23198 0.169678,0.386433 0,0.147241 -0.0565928,0.272547 -0.169678,0.376718 -0.112785,0.105573 -0.251212,0.157158 -0.413678,0.157158zm0.47608 5.04687l-0.960374 0 0 -4.17104 0.960374 0 0 4.17104zm3.13083 0.0973596c-0.652369,0 -1.17493,-0.194719 -1.56487,-0.584158 -0.391041,-0.389138 -0.586061,-0.906286 -0.586061,-1.55014 0,-0.700649 0.203634,-1.24694 0.6103,-1.64179 0.406667,-0.393545 0.954565,-0.589667 1.6451,-0.589667 0.660984,0 1.17793,0.190612 1.54644,0.574241 0.369906,0.382327 0.55491,0.913498 0.55491,1.59191 0,0.666092 -0.198926,1.19836 -0.597179,1.59902 -0.399755,0.400356 -0.935133,0.600585 -1.60864,0.600585zm0.0464762 -3.61212c-0.375415,0 -0.672102,0.12781 -0.889658,0.386333 -0.217557,0.258924 -0.327537,0.613205 -0.327537,1.06785 0,0.436616 0.10998,0.781581 0.331744,1.03169 0.220361,0.251713 0.515545,0.376718 0.885452,0.376718 0.377218,0 0.667995,-0.123603 0.869926,-0.369606 0.203634,-0.247606 0.3053,-0.599483 0.3053,-1.05553 0,-0.458752 -0.101667,-0.813333 -0.3053,-1.06344 -0.201931,-0.249008 -0.492708,-0.374013 -0.869926,-0.374013zm1.22451 -2.78206l-1.18354 1.33609 -0.711667 0 1.00134 -1.33609 0.893865 0zm5.68422 6.29682l-0.958972 0 0 -2.34955c0,-0.780179 -0.28076,-1.16932 -0.840077,-1.16932 -0.292479,0 -0.533975,0.106975 -0.724488,0.323831 -0.190813,0.215553 -0.285268,0.4881 -0.285268,0.816138l0 2.3789 -0.964581 0 0 -4.17104 0.964581 0 0 0.692435 0.0170279 0c0.316118,-0.527064 0.775171,-0.789795 1.37265,-0.789795 0.461857,0 0.813333,0.147542 1.05483,0.442125 0.242898,0.293381 0.364297,0.720381 0.364297,1.27649l0 2.54978zm4.58822 -2.11757l0 2.11757 -0.980207 0 0 -5.84077 1.79935 0c0.680516,0 1.20868,0.155755 1.5844,0.468668 0.375716,0.31121 0.562122,0.751933 0.562122,1.31926 0,0.56743 -0.19502,1.03169 -0.587463,1.39308 -0.391342,0.361493 -0.92091,0.542189 -1.5888,0.542189l-0.789394 0zm0 -2.9252l0 2.1343 0.636744 0c0.422292,0 0.742918,-0.0959573 0.964581,-0.289274 0.220361,-0.192015 0.330642,-0.464261 0.330642,-0.814736 0,-0.686926 -0.405264,-1.03029 -1.21609,-1.03029l-0.715874 0zm7.55939 5.04277l-0.960174 0 0 -0.660383 -0.0169278 0c-0.278256,0.505929 -0.711967,0.757742 -1.29943,0.757742 -1.00114,0 -1.50106,-0.590969 -1.50106,-1.77541l0 -2.49299 0.958772 0 0 2.39573c0,0.749128 0.293782,1.12314 0.882647,1.12314 0.283865,0 0.516947,-0.102768 0.700548,-0.308506 0.183601,-0.20724 0.275452,-0.476882 0.275452,-0.810529l0 -2.39983 0.960174 0 0 4.17104zm-0.542289 -6.29682l-1.18334 1.33609 -0.711867 0 1.00134 -1.33609 0.893865 0zm2.76784 5.69353l-0.0167274 0 0 0.603289 -0.960374 0 0 -6.17452 0.960374 0 0 2.73629 0.0167274 0c0.327837,-0.553407 0.807824,-0.830161 1.43926,-0.830161 0.535077,0 0.954565,0.186205 1.25536,0.560319 0.302296,0.372611 0.453243,0.873131 0.453243,1.50026 0,0.697944 -0.169378,1.25676 -0.508333,1.67665 -0.339056,0.418486 -0.802215,0.62853 -1.38968,0.62853 -0.552105,0 -0.968788,-0.233683 -1.24985,-0.700649zm-0.0253415 -1.65742l0 0.517148c0,0.3047 0.0988621,0.561621 0.296686,0.77447 0.196322,0.211346 0.447634,0.31692 0.749829,0.31692 0.355984,0 0.635342,-0.136223 0.838975,-0.40857 0.201931,-0.272547 0.303598,-0.653471 0.303598,-1.14297 0,-0.410273 -0.0947553,-0.731399 -0.283865,-0.963379 -0.188008,-0.232281 -0.444829,-0.34767 -0.766757,-0.34767 -0.34186,0 -0.617312,0.119596 -0.826255,0.357286 -0.207741,0.239092 -0.312212,0.538082 -0.312212,0.89677zm5.11799 2.26071l-0.964581 0 0 -6.17452 0.964581 0 0 6.17452zm1.73284 -5.04687c-0.156857,0 -0.290877,-0.0501823 -0.40256,-0.150246 -0.113085,-0.101466 -0.167975,-0.227874 -0.167975,-0.383629 0,-0.154453 0.05489,-0.283565 0.167975,-0.386433 0.111683,-0.103069 0.245703,-0.154353 0.40256,-0.154353 0.162366,0 0.300793,0.0512841 0.413578,0.154353 0.113085,0.102869 0.169678,0.23198 0.169678,0.386433 0,0.147241 -0.0565928,0.272547 -0.169678,0.376718 -0.112785,0.105573 -0.251212,0.157158 -0.413578,0.157158zm0.47598 5.04687l-0.960374 0 0 -4.17104 0.960374 0 0 4.17104zm4.28593 -0.192015c-0.338655,0.193317 -0.741115,0.289374 -1.20437,0.289374 -0.628631,0 -1.13566,-0.193317 -1.5225,-0.57975 -0.385532,-0.386634 -0.579149,-0.888456 -0.579149,-1.50577 0,-0.686926 0.207841,-1.23863 0.622821,-1.65581 0.415381,-0.415681 0.97019,-0.624424 1.66513,-0.624424 0.386934,0 0.727292,0.0667094 1.02258,0.198826l0 0.880043c-0.295284,-0.216956 -0.6103,-0.325233 -0.943447,-0.325233 -0.405264,0 -0.738711,0.134921 -0.997135,0.404463 -0.259926,0.271245 -0.389739,0.624424 -0.389739,1.06094 0,0.432509 0.122901,0.773067 0.367102,1.02318 0.242898,0.249008 0.570535,0.374013 0.981609,0.374013 0.345967,0 0.670699,-0.120898 0.977102,-0.362795l0 0.822949zm4.20269 0.192015l-0.930626 0 0 -0.652169 -0.0169278 0c-0.292179,0.500521 -0.721783,0.749529 -1.28661,0.749529 -0.416483,0 -0.742617,-0.111383 -0.978504,-0.333747 -0.235987,-0.222365 -0.353179,-0.517248 -0.353179,-0.884149 0,-0.78699 0.460355,-1.24574 1.38126,-1.37656l1.25816 -0.175287c0,-0.595076 -0.28657,-0.890961 -0.85981,-0.890961 -0.505629,0 -0.960475,0.17088 -1.36574,0.512841l0 -0.827056c0.446232,-0.261328 0.961777,-0.390841 1.54644,-0.390841 1.07045,0 1.60553,0.51865 1.60553,1.55575l0 2.71265zm-0.926419 -2.04936l-0.889658 0.122401c-0.275452,0.0361593 -0.482992,0.101366 -0.622821,0.197424 -0.139829,0.0973596 -0.208943,0.265435 -0.208943,0.507332 0,0.176589 0.0649064,0.321327 0.191915,0.433811 0.128711,0.112685 0.300893,0.169678 0.515645,0.169678 0.292179,0 0.535378,-0.101466 0.72589,-0.304399 0.191915,-0.201831 0.287972,-0.455947 0.287972,-0.763351l0 -0.362895z"/>
 </g>
</svg>